<svg width="93" height="47" viewBox="0 0 93 47" fill="none" xmlns="http://www.w3.org/2000/svg">
<g clip-path="url(#clip0_218_52)">
<path fill-rule="evenodd" clip-rule="evenodd" d="M68.9482 43.8667C80.4604 43.8667 89.793 34.7482 89.793 23.5C89.793 12.2518 80.4604 3.13333 68.9482 3.13333C57.4358 3.13333 48.1032 12.2518 48.1032 23.5C48.1032 34.7482 57.4358 43.8667 68.9482 43.8667ZM68.9482 47C82.2315 47 92.9999 36.4786 92.9999 23.5C92.9999 10.5213 82.2315 0 68.9482 0C55.6647 0 44.8965 10.5213 44.8965 23.5C44.8965 36.4786 55.6647 47 68.9482 47Z" fill="#660000"/>
<path fill-rule="evenodd" clip-rule="evenodd" d="M70.5527 12.6445H67.3458V21.935H57.8555V25.0683H67.3458V34.3588H70.5527V25.0683H80.0432V21.935H70.5527V12.6445ZM70.5527 21.935H67.3458V25.0683H70.5527V21.935Z" fill="#660000"/>
<path fill-rule="evenodd" clip-rule="evenodd" d="M24.0517 43.8667C35.564 43.8667 44.8966 34.7482 44.8966 23.5C44.8966 12.2518 35.564 3.13333 24.0517 3.13333C12.5394 3.13333 3.2069 12.2518 3.2069 23.5C3.2069 34.7482 12.5394 43.8667 24.0517 43.8667ZM24.0517 47C37.3352 47 48.1034 36.4786 48.1034 23.5C48.1034 10.5213 37.3352 0 24.0517 0C10.7683 0 0 10.5213 0 23.5C0 36.4786 10.7683 47 24.0517 47Z" fill="#660000"/>
<path d="M15.082 34.3585V12.6445H19.5267L30.3213 31.4427L29.8449 31.5668V12.6445H33.0199V34.3585H28.575L17.7806 15.5604L18.2568 15.4363V34.3585H15.082Z" fill="#660000"/>
</g>
<defs>
<clipPath id="clip0_218_52">
<rect width="93" height="47" fill="white"/>
</clipPath>
</defs>
</svg>
