<svg width="162" height="161" viewBox="0 0 162 161" fill="none" xmlns="http://www.w3.org/2000/svg">
<path fill-rule="evenodd" clip-rule="evenodd" d="M81.125 150.267C119.596 150.267 150.783 119.031 150.783 80.5C150.783 41.9689 119.596 10.7333 81.125 10.7333C42.6535 10.7333 11.4662 41.9689 11.4662 80.5C11.4662 119.031 42.6535 150.267 81.125 150.267ZM81.125 161C125.515 161 161.5 124.959 161.5 80.5C161.5 36.0411 125.515 0 81.125 0C36.7347 0 0.75 36.0411 0.75 80.5C0.75 124.959 36.7347 161 81.125 161Z" fill="#660000"/>
<path fill-rule="evenodd" clip-rule="evenodd" d="M86.1082 43.8438H75.4247V75.518H43.8086V86.2006H75.4247V117.875H86.1082V86.2006H117.725V75.518H86.1082V43.8438ZM86.1082 75.518H75.4247V86.2006H86.1082V75.518Z" fill="#660000"/>
</svg>
