<svg width="120" height="60" viewBox="0 0 120 60" fill="none" xmlns="http://www.w3.org/2000/svg">
<g clip-path="url(#clip0_218_47)">
<path fill-rule="evenodd" clip-rule="evenodd" d="M88.9641 56C103.819 56 115.861 44.3594 115.861 30C115.861 15.6406 103.819 4 88.9641 4C74.1095 4 62.0674 15.6406 62.0674 30C62.0674 44.3594 74.1095 56 88.9641 56ZM88.9641 60C106.104 60 119.999 46.5685 119.999 30C119.999 13.4315 106.104 0 88.9641 0C71.8241 0 57.9297 13.4315 57.9297 30C57.9297 46.5685 71.8241 60 88.9641 60Z" fill="#660000"/>
<path fill-rule="evenodd" clip-rule="evenodd" d="M91.0358 16.1406H86.8979V28.0008H74.6523V32.0008H86.8979V43.861H91.0358V32.0008H103.282V28.0008H91.0358V16.1406ZM91.0358 28.0008H86.8979V32.0008H91.0358V28.0008Z" fill="#660000"/>
<path fill-rule="evenodd" clip-rule="evenodd" d="M31.0344 56C45.8891 56 57.9311 44.3594 57.9311 30C57.9311 15.6406 45.8891 4 31.0344 4C16.1799 4 4.13794 15.6406 4.13794 30C4.13794 44.3594 16.1799 56 31.0344 56ZM31.0344 60C48.1744 60 62.0689 46.5685 62.0689 30C62.0689 13.4315 48.1744 0 31.0344 0C13.8946 0 0 13.4315 0 30C0 46.5685 13.8946 60 31.0344 60Z" fill="#660000"/>
<path d="M19.4609 43.8606V16.1406H25.196L39.1245 40.1383L38.5098 40.2967V16.1406H42.6065V43.8606H36.8713L22.943 19.863L23.5575 19.7046V43.8606H19.4609Z" fill="#660000"/>
</g>
<defs>
<clipPath id="clip0_218_47">
<rect width="120" height="60" fill="white"/>
</clipPath>
</defs>
</svg>
