<svg width="87" height="44" viewBox="0 0 87 44" fill="none" xmlns="http://www.w3.org/2000/svg">
<g clip-path="url(#clip0_218_27)">
<path fill-rule="evenodd" clip-rule="evenodd" d="M64.5 41.0667C75.2694 41.0667 83.9999 32.5302 83.9999 22C83.9999 11.4698 75.2694 2.93333 64.5 2.93333C53.7304 2.93333 44.9999 11.4698 44.9999 22C44.9999 32.5302 53.7304 41.0667 64.5 41.0667ZM64.5 44C76.9263 44 86.9999 34.1502 86.9999 22C86.9999 9.84974 76.9263 0 64.5 0C52.0735 0 42 9.84974 42 22C42 34.1502 52.0735 44 64.5 44Z" fill="#F7F5F0"/>
<path fill-rule="evenodd" clip-rule="evenodd" d="M65.9991 11.8359H62.9991V20.5334H54.1211V23.4667H62.9991V32.1642H65.9991V23.4667H74.8773V20.5334H65.9991V11.8359ZM65.9991 20.5334H62.9991V23.4667H65.9991V20.5334Z" fill="#F7F5F0"/>
<path fill-rule="evenodd" clip-rule="evenodd" d="M22.5 41.0667C33.2696 41.0667 42.0001 32.5302 42.0001 22C42.0001 11.4698 33.2696 2.93333 22.5 2.93333C11.7304 2.93333 3.00001 11.4698 3.00001 22C3.00001 32.5302 11.7304 41.0667 22.5 41.0667ZM22.5 44C34.9265 44 44.9999 34.1502 44.9999 22C44.9999 9.84974 34.9265 0 22.5 0C10.0736 0 0 9.84974 0 22C0 34.1502 10.0736 44 22.5 44Z" fill="#F7F5F0"/>
<path d="M14.1094 32.1639V11.8359H18.2673L28.3654 29.4342L27.9198 29.5504V11.8359H30.8899V32.1639H26.7319L16.6339 14.5657L17.0793 14.4496V32.1639H14.1094Z" fill="#F7F5F0"/>
</g>
<defs>
<clipPath id="clip0_218_27">
<rect width="87" height="44" fill="white"/>
</clipPath>
</defs>
</svg>
