<svg width="32" height="32" viewBox="0 0 32 32" fill="none" xmlns="http://www.w3.org/2000/svg">
<path fill-rule="evenodd" clip-rule="evenodd" d="M16 29.8667C23.6583 29.8667 29.8667 23.6583 29.8667 16C29.8667 8.34165 23.6583 2.13333 16 2.13333C8.3416 2.13333 2.13323 8.34165 2.13323 16C2.13323 23.6583 8.3416 29.8667 16 29.8667ZM16 32C24.8365 32 32 24.8365 32 16C32 7.16345 24.8365 0 16 0C7.16336 0 0 7.16345 0 16C0 24.8365 7.16336 32 16 32Z" fill="#660000"/>
<path fill-rule="evenodd" clip-rule="evenodd" d="M17.0658 8.60742H14.9324V14.9328H8.61914V17.0662H14.9324V23.3916H17.0658V17.0662H23.3791V14.9328H17.0658V8.60742ZM17.0658 14.9328H14.9324V17.0662H17.0658V14.9328Z" fill="#660000"/>
</svg>
