<svg width="51" height="51" viewBox="0 0 51 51" fill="none" xmlns="http://www.w3.org/2000/svg">
<g clip-path="url(#clip0_218_154)">
<rect width="51" height="51" rx="25.5" fill="white"/>
<path fill-rule="evenodd" clip-rule="evenodd" d="M-3 -2H53V54H-3V-2ZM26.2107 19.0129C23.703 20.056 18.691 22.2148 11.1749 25.4895C9.95434 25.9749 9.31499 26.4497 9.25678 26.914C9.15842 27.6986 10.141 28.0076 11.479 28.4283C11.661 28.4855 11.8496 28.5448 12.043 28.6077C13.3594 29.0356 15.1302 29.5362 16.0508 29.5561C16.8858 29.5742 17.8178 29.2299 18.8468 28.5233C25.8694 23.7829 29.4945 21.3868 29.7221 21.3352C29.8827 21.2987 30.1052 21.2529 30.2559 21.3869C30.4067 21.5209 30.3918 21.7746 30.3759 21.8427C30.2785 22.2577 26.4215 25.8435 24.4255 27.6992C23.8032 28.2777 23.3619 28.6881 23.2716 28.7818C23.0695 28.9917 22.8635 29.1903 22.6655 29.3812C21.4425 30.5601 20.5254 31.4442 22.7163 32.888C23.7692 33.5818 24.6116 34.1556 25.4522 34.7279C26.3701 35.353 27.2856 35.9765 28.4701 36.753C28.7719 36.9508 29.0602 37.1563 29.3409 37.3565C30.4091 38.118 31.3688 38.8022 32.5545 38.6931C33.2434 38.6297 33.9551 37.9819 34.3165 36.0498C35.1706 31.4836 36.8495 21.5902 37.2376 17.5133C37.2715 17.1561 37.2288 16.699 37.1944 16.4983C37.1601 16.2977 37.0883 16.0118 36.8275 15.8001C36.5186 15.5494 36.0417 15.4966 35.8284 15.5002C34.8587 15.5174 33.3709 16.0348 26.2107 19.0129Z" fill="#660000"/>
</g>
<rect x="1" y="1" width="49" height="49" rx="24.5" stroke="#660000" stroke-width="2"/>
<defs>
<clipPath id="clip0_218_154">
<rect width="51" height="51" rx="25.5" fill="white"/>
</clipPath>
</defs>
</svg>
